<svg width="50" height="50" viewBox="0 0 50 50" fill="none" xmlns="http://www.w3.org/2000/svg">
<g clip-path="url(#clip0_1520_4536)">
<g clip-path="url(#clip1_1520_4536)">
<path d="M7.59692 36.973L7.65138 40.2874C7.74328 42.9121 9.54032 45.4785 13.0221 47.369C20.0333 51.1774 31.224 50.8 38.0173 46.5524C41.4379 44.408 43.092 41.6872 42.9967 39.0282L42.932 35.7139C43.0273 38.3729 41.3732 41.0937 37.9527 43.238C31.1457 47.4959 19.9686 47.863 12.9574 44.0546C9.48586 42.1641 7.69222 39.6012 7.59692 36.973Z" fill="#F4F4FB"/>
<mask id="mask0_1520_4536" style="mask-type:luminance" maskUnits="userSpaceOnUse" x="7" y="35" width="37" height="15">
<path d="M7.59692 36.973L7.65138 40.2874C7.74328 42.9121 9.54032 45.4785 13.0221 47.369C20.0333 51.1774 31.224 50.8 38.0173 46.5524C41.4379 44.408 43.092 41.6872 42.9967 39.0282L42.932 35.7139C43.0273 38.3729 41.3732 41.0937 37.9527 43.238C31.1457 47.4959 19.9686 47.863 12.9574 44.0546C9.48586 42.1641 7.69222 39.6012 7.59692 36.973Z" fill="white"/>
</mask>
<g mask="url(#mask0_1520_4536)">
<path d="M7.59692 36.9727L7.65138 40.287C7.70544 41.4897 8.08696 42.6542 8.75411 43.6528L8.69966 40.3385C8.03251 39.3399 7.65099 38.1754 7.59692 36.9727Z" fill="#A5A5A5"/>
<path d="M8.69971 40.3389L8.75415 43.6532C9.64247 45.0256 11.0651 46.3088 13.0221 47.369C16.1704 49.0845 20.1695 49.9491 24.223 50.0006L24.172 46.6862C20.1286 46.6245 16.1193 45.7667 12.9813 44.0546C11.0243 42.9945 9.60163 41.7181 8.71331 40.3389H8.69971Z" fill="#A5A5A5"/>
<path d="M24.172 46.6866L24.223 50.0009C26.2506 50.0267 28.2756 49.8474 30.2677 49.4657L30.2132 46.1514C28.2223 46.5329 26.1984 46.7122 24.172 46.6866Z" fill="#A5A5A5"/>
<path d="M30.2131 46.151L30.2675 49.4653C33.004 48.9736 35.6295 47.9868 38.0173 46.5524C41.4378 44.408 43.0919 41.6872 42.9966 39.0282L42.9319 35.7139C43.0272 38.3729 41.3731 41.0937 37.9526 43.238C35.5663 44.6753 32.9401 45.6624 30.2029 46.151H30.2131Z" fill="#A5A5A5"/>
</g>
<path d="M12.5796 29.469C5.77262 33.7268 5.95981 40.2663 12.9676 44.0713C19.9754 47.8763 31.1695 47.5023 37.9629 43.2547C44.7562 39.0071 44.5827 32.4574 37.5715 28.649C30.5603 24.8406 19.373 25.1939 12.5796 29.469Z" fill="#1A1A1A"/>
<path d="M11.6572 36.0561C11.9805 37.7716 13.2739 39.4459 15.5406 40.7634C23.3686 45.3266 36.9996 42.7362 38.5244 36.2688C39.0519 33.7985 38.6367 30.9713 37.8437 29.4891C36.4823 26.933 33.8173 24.6274 29.5698 23.4094C28.9798 23.2401 28.3842 23.096 27.783 22.9771C27.1832 22.9076 26.5879 22.8045 25.9995 22.6683C24.7408 22.3147 23.4224 22.2317 22.1298 22.4247C19.8971 22.7129 16.6161 24.1402 15.5304 24.8264C11.9771 27.0668 10.9663 31.8702 11.6572 36.0561Z" fill="#FF8400"/>
<path d="M30.7031 27.3109C30.6007 27.6115 30.4624 27.8984 30.2913 28.1653C29.7645 28.9288 29.0952 29.5814 28.3206 30.0866C26.6189 31.2909 24.7402 32.0114 22.63 31.7712C21.8244 31.7234 21.0604 31.3947 20.4688 30.8414C19.8085 30.1347 19.6656 29.0848 19.6826 28.1172C19.703 26.8821 19.9174 25.6572 19.9344 24.422C19.9344 23.3138 19.5941 22.312 19.7541 21.2141C20.1483 19.0871 21.1682 17.129 22.6811 15.5941C24.2535 13.9712 25.9416 13.1924 28.1505 13.3022C31.7582 13.4703 30.1926 15.3299 29.9679 16.6886C29.5119 19.3888 29.9679 21.9723 30.6861 24.5353C30.9735 25.4369 30.9795 26.4058 30.7031 27.3109Z" fill="#FFA647"/>
<g filter="url(#filter0_b_1520_4536)">
<path d="M28.8483 19.6768C28.8755 19.6253 28.9061 19.5738 28.9367 19.5224C29.2803 19.0439 29.6842 18.6126 30.1382 18.2392C30.5184 17.8515 30.8604 17.4275 31.1592 16.9731C31.4103 16.5514 31.5563 16.0746 31.5847 15.5836C31.8059 14.3274 31.8059 13.0417 31.5847 11.7855C31.5847 11.7615 31.5847 11.7374 31.5847 11.7134C31.2523 9.89214 30.263 8.25932 28.8074 7.12961C27.3677 6.07287 25.5401 5.68859 23.7634 5.58223C21.5756 5.45393 19.3823 5.70696 17.2798 6.33019C16.6365 6.5189 15.6972 6.77622 15.578 7.52418C15.4249 8.4231 15.316 9.33918 15.156 10.2415C15.0414 10.7626 15.0024 11.2977 15.0403 11.8301C15.1152 12.4511 15.3806 13.0344 15.4725 13.6519C15.5746 14.4033 15.384 15.1547 15.2887 15.9061C14.9109 18.8259 15.915 21.7388 16.9054 24.4836C17.0327 24.9848 17.2968 25.4401 17.6678 25.7977C18.4948 26.4667 19.6486 26.2506 20.605 26.0859C21.7062 25.8977 22.7837 25.5882 23.8179 25.1629C25.261 24.5694 26.8572 23.8454 27.7659 22.5142C28.0434 22.1133 28.257 21.671 28.399 21.2036C28.4705 20.9703 28.4671 20.737 28.5351 20.5174C28.6099 20.2269 28.7148 19.9451 28.8483 19.6768Z" fill="white" fill-opacity="0.5"/>
</g>
<path d="M18.117 3.10872C19.5874 1.80494 21.5205 1.07071 23.4605 0.727609C24.4372 0.546579 25.4353 0.514194 26.4216 0.631539C27.2651 0.703352 28.0946 0.893908 28.8857 1.19765C31.0916 2.09319 32.8809 3.79521 33.8956 5.96331C34.6546 7.60333 34.7601 9.50753 34.6921 11.2985C34.6635 12.8574 34.4101 14.4038 33.9399 15.8892C33.2592 17.886 31.7344 20.099 29.7774 20.9122C29.6413 19.9378 29.8183 18.881 29.0729 18.109C28.9711 17.9982 28.8473 17.9104 28.7094 17.8512C28.5716 17.7921 28.4229 17.763 28.2731 17.7659C28.0598 17.7944 27.8514 17.8521 27.6536 17.9375C27.4544 18.0237 27.2313 18.0359 27.024 17.9718C26.5305 17.7694 26.6836 17.169 26.6836 16.7538C26.6836 16.0676 27.184 15.4775 27.0716 14.7844C26.9525 14.0193 26.2718 13.5355 25.7783 13.0312C25.3167 12.4864 24.9517 11.8654 24.6994 11.1956C24.4253 10.5142 24.2178 9.80753 24.08 9.08552C24.0527 8.95857 24.0153 8.82476 23.9745 8.68752C23.4879 8.91562 22.9891 9.11607 22.4803 9.28795C20.5713 9.85315 18.5475 9.89696 16.6161 9.4149C16.1757 9.26942 15.7532 9.07373 15.3568 8.83163C15.3568 8.83163 15.0641 5.81235 18.117 3.10872Z" fill="#1A1A1A"/>
<path d="M30.7883 14.108C32.4901 13.9501 32.9734 16.0636 31.8502 17.7414C31.4456 18.2315 30.9891 18.6756 30.4888 19.0657C27.5073 21.7625 26.6667 18.9525 27.6128 18.0364C29.8149 15.9058 28.6373 14.3104 30.7883 14.108Z" fill="url(#paint0_linear_1520_4536)"/>
</g>
</g>
<defs>
<filter id="filter0_b_1520_4536" x="2.02625" y="-7.4502" width="42.7244" height="46.7051" filterUnits="userSpaceOnUse" color-interpolation-filters="sRGB">
<feFlood flood-opacity="0" result="BackgroundImageFix"/>
<feGaussianBlur in="BackgroundImageFix" stdDeviation="6.5"/>
<feComposite in2="SourceAlpha" operator="in" result="effect1_backgroundBlur_1520_4536"/>
<feBlend mode="normal" in="SourceGraphic" in2="effect1_backgroundBlur_1520_4536" result="shape"/>
</filter>
<linearGradient id="paint0_linear_1520_4536" x1="30" y1="20.4996" x2="30" y2="13.9996" gradientUnits="userSpaceOnUse">
<stop stop-color="#FFCA93"/>
<stop offset="1" stop-color="white"/>
</linearGradient>
<clipPath id="clip0_1520_4536">
<rect width="50" height="50" fill="white"/>
</clipPath>
<clipPath id="clip1_1520_4536">
<rect width="38" height="50" fill="white" transform="translate(5)"/>
</clipPath>
</defs>
</svg>
